<mxfile host="Electron" modified="2023-05-22T19:17:15.275Z" agent="Mozilla/5.0 (Windows NT 10.0; Win64; x64) AppleWebKit/537.36 (KHTML, like Gecko) draw.io/21.2.8 Chrome/112.0.5615.165 Electron/24.2.0 Safari/537.36" etag="L0k_h02cAAYav7gBO86A" version="21.2.8" type="device">
  <diagram name="Pagina-1" id="QafWwRi-4OLymP5OcPl4">
    <mxGraphModel dx="2175" dy="613" grid="1" gridSize="10" guides="1" tooltips="1" connect="1" arrows="1" fold="1" page="1" pageScale="1" pageWidth="827" pageHeight="1169" math="0" shadow="0">
      <root>
        <mxCell id="0" />
        <mxCell id="1" parent="0" />
        <mxCell id="-L173OqNjqbi-bdySPPE-1" value="caso di estensione del passo 1" style="text;html=1;align=center;verticalAlign=middle;resizable=0;points=[];autosize=1;strokeColor=none;fillColor=none;" parent="1" vertex="1">
          <mxGeometry x="-765" y="755" width="190" height="30" as="geometry" />
        </mxCell>
        <mxCell id="-L173OqNjqbi-bdySPPE-2" value="Chef" style="shape=umlActor;verticalLabelPosition=bottom;verticalAlign=top;html=1;outlineConnect=0;" parent="1" vertex="1">
          <mxGeometry x="-870" y="817" width="30" height="60" as="geometry" />
        </mxCell>
        <mxCell id="-L173OqNjqbi-bdySPPE-3" value="Sistema" style="verticalAlign=top;align=center;spacingTop=8;spacingLeft=2;spacingRight=12;shape=cube;size=10;direction=south;fontStyle=4;html=1;whiteSpace=wrap;" parent="1" vertex="1">
          <mxGeometry x="-535" y="832" width="120" height="45" as="geometry" />
        </mxCell>
        <mxCell id="-L173OqNjqbi-bdySPPE-4" value="" style="endArrow=classic;html=1;rounded=0;" parent="1" edge="1">
          <mxGeometry width="50" height="50" relative="1" as="geometry">
            <mxPoint x="-850" y="962" as="sourcePoint" />
            <mxPoint x="-475" y="962" as="targetPoint" />
          </mxGeometry>
        </mxCell>
        <mxCell id="-L173OqNjqbi-bdySPPE-5" value="1. createFoglioRiepilogativo(servizio, evento)" style="edgeLabel;html=1;align=center;verticalAlign=middle;resizable=0;points=[];" parent="-L173OqNjqbi-bdySPPE-4" connectable="0" vertex="1">
          <mxGeometry x="0.1105" y="3" relative="1" as="geometry">
            <mxPoint x="-20" y="3" as="offset" />
          </mxGeometry>
        </mxCell>
        <mxCell id="-L173OqNjqbi-bdySPPE-6" value="" style="html=1;labelBackgroundColor=#ffffff;startArrow=none;startFill=0;startSize=6;endArrow=classic;endFill=1;endSize=6;jettySize=auto;orthogonalLoop=1;strokeWidth=1;dashed=1;fontSize=14;rounded=0;" parent="1" edge="1">
          <mxGeometry width="60" height="60" relative="1" as="geometry">
            <mxPoint x="-477.5" y="1000" as="sourcePoint" />
            <mxPoint x="-852.5" y="1000" as="targetPoint" />
          </mxGeometry>
        </mxCell>
        <mxCell id="-L173OqNjqbi-bdySPPE-7" value="ok" style="edgeLabel;html=1;align=center;verticalAlign=middle;resizable=0;points=[];" parent="-L173OqNjqbi-bdySPPE-6" connectable="0" vertex="1">
          <mxGeometry x="-0.1099" relative="1" as="geometry">
            <mxPoint x="-20" as="offset" />
          </mxGeometry>
        </mxCell>
        <mxCell id="-L173OqNjqbi-bdySPPE-8" value="LOOP" style="shape=umlFrame;whiteSpace=wrap;html=1;pointerEvents=0;fillColor=#dae8fc;strokeColor=#6c8ebf;width=50;height=18;strokeWidth=2;" parent="1" vertex="1">
          <mxGeometry x="-870" y="912" width="420" height="348" as="geometry" />
        </mxCell>
        <mxCell id="-L173OqNjqbi-bdySPPE-9" value="" style="endArrow=none;dashed=1;html=1;rounded=0;entryX=0;entryY=0;entryDx=45;entryDy=65;entryPerimeter=0;" parent="1" edge="1">
          <mxGeometry width="50" height="50" relative="1" as="geometry">
            <mxPoint x="-480" y="1910" as="sourcePoint" />
            <mxPoint x="-477.5" y="895" as="targetPoint" />
          </mxGeometry>
        </mxCell>
        <mxCell id="-L173OqNjqbi-bdySPPE-10" value="" style="endArrow=none;dashed=1;html=1;rounded=0;fillColor=#f5f5f5;strokeColor=#666666;" parent="1" edge="1">
          <mxGeometry width="50" height="50" relative="1" as="geometry">
            <mxPoint x="-860" y="1920" as="sourcePoint" />
            <mxPoint x="-852.5" y="895" as="targetPoint" />
          </mxGeometry>
        </mxCell>
        <mxCell id="-L173OqNjqbi-bdySPPE-11" value="ALT" style="shape=umlFrame;whiteSpace=wrap;html=1;pointerEvents=0;fillColor=#FF0505;strokeColor=#FF0505;width=30;height=15;swimlaneFillColor=none;fillStyle=auto;strokeWidth=3;shadow=0;gradientColor=none;" parent="1" vertex="1">
          <mxGeometry x="-860" y="940" width="400" height="310" as="geometry" />
        </mxCell>
        <mxCell id="-L173OqNjqbi-bdySPPE-12" value="ALT" style="shape=umlFrame;whiteSpace=wrap;html=1;pointerEvents=0;fillColor=#ffe6cc;strokeColor=#d79b00;width=30;height=15;swimlaneFillColor=none;fillStyle=auto;strokeWidth=3;shadow=0;" parent="1" vertex="1">
          <mxGeometry x="-850" y="970" width="380" height="140" as="geometry" />
        </mxCell>
        <mxCell id="-L173OqNjqbi-bdySPPE-13" value="" style="endArrow=none;dashed=1;html=1;dashPattern=1 3;strokeWidth=2;rounded=0;fillColor=#e51400;strokeColor=#B20000;" parent="1" edge="1">
          <mxGeometry width="50" height="50" relative="1" as="geometry">
            <mxPoint x="-845" y="1015" as="sourcePoint" />
            <mxPoint x="-475" y="1015" as="targetPoint" />
          </mxGeometry>
        </mxCell>
        <mxCell id="-L173OqNjqbi-bdySPPE-14" value="" style="html=1;labelBackgroundColor=#ffffff;startArrow=none;startFill=0;startSize=6;endArrow=classic;endFill=1;endSize=6;jettySize=auto;orthogonalLoop=1;strokeWidth=1;dashed=1;fontSize=14;rounded=0;" parent="1" edge="1">
          <mxGeometry width="60" height="60" relative="1" as="geometry">
            <mxPoint x="-475" y="1033.6399999999999" as="sourcePoint" />
            <mxPoint x="-850" y="1033.6399999999999" as="targetPoint" />
          </mxGeometry>
        </mxCell>
        <mxCell id="-L173OqNjqbi-bdySPPE-15" value="1.a.1 lo chef non è autorizzato" style="edgeLabel;html=1;align=center;verticalAlign=middle;resizable=0;points=[];" parent="-L173OqNjqbi-bdySPPE-14" connectable="0" vertex="1">
          <mxGeometry x="-0.1099" relative="1" as="geometry">
            <mxPoint x="-20" as="offset" />
          </mxGeometry>
        </mxCell>
        <mxCell id="-L173OqNjqbi-bdySPPE-16" value="" style="html=1;labelBackgroundColor=#ffffff;startArrow=none;startFill=0;startSize=6;endArrow=classic;endFill=1;endSize=6;jettySize=auto;orthogonalLoop=1;strokeWidth=1;dashed=1;fontSize=14;rounded=0;" parent="1" edge="1">
          <mxGeometry width="60" height="60" relative="1" as="geometry">
            <mxPoint x="-475" y="1064.6399999999999" as="sourcePoint" />
            <mxPoint x="-850" y="1064.6399999999999" as="targetPoint" />
          </mxGeometry>
        </mxCell>
        <mxCell id="-L173OqNjqbi-bdySPPE-17" value="1.a.2 il servizio non è stato approvato" style="edgeLabel;html=1;align=center;verticalAlign=middle;resizable=0;points=[];" parent="-L173OqNjqbi-bdySPPE-16" connectable="0" vertex="1">
          <mxGeometry x="-0.1099" relative="1" as="geometry">
            <mxPoint x="-20" as="offset" />
          </mxGeometry>
        </mxCell>
        <mxCell id="-L173OqNjqbi-bdySPPE-18" value="" style="endArrow=none;dashed=1;html=1;dashPattern=1 3;strokeWidth=2;rounded=0;fillColor=#e51400;strokeColor=#B20000;" parent="1" edge="1">
          <mxGeometry width="50" height="50" relative="1" as="geometry">
            <mxPoint x="-845" y="1055" as="sourcePoint" />
            <mxPoint x="-475" y="1055" as="targetPoint" />
          </mxGeometry>
        </mxCell>
        <mxCell id="-L173OqNjqbi-bdySPPE-19" value="ALT" style="shape=umlFrame;whiteSpace=wrap;html=1;pointerEvents=0;fillColor=#ffe6cc;strokeColor=#d79b00;width=30;height=15;swimlaneFillColor=none;fillStyle=auto;strokeWidth=3;shadow=0;" parent="1" vertex="1">
          <mxGeometry x="-850" y="1150" width="380" height="90" as="geometry" />
        </mxCell>
        <mxCell id="-L173OqNjqbi-bdySPPE-20" value="" style="endArrow=none;dashed=1;html=1;dashPattern=1 3;strokeWidth=2;rounded=0;fillColor=#e51400;strokeColor=#B20000;" parent="1" edge="1">
          <mxGeometry width="50" height="50" relative="1" as="geometry">
            <mxPoint x="-845" y="1080" as="sourcePoint" />
            <mxPoint x="-475" y="1080" as="targetPoint" />
          </mxGeometry>
        </mxCell>
        <mxCell id="-L173OqNjqbi-bdySPPE-21" value="" style="html=1;labelBackgroundColor=#ffffff;startArrow=none;startFill=0;startSize=6;endArrow=classic;endFill=1;endSize=6;jettySize=auto;orthogonalLoop=1;strokeWidth=1;dashed=1;fontSize=14;rounded=0;" parent="1" edge="1">
          <mxGeometry width="60" height="60" relative="1" as="geometry">
            <mxPoint x="-475" y="1100" as="sourcePoint" />
            <mxPoint x="-850" y="1100" as="targetPoint" />
          </mxGeometry>
        </mxCell>
        <mxCell id="-L173OqNjqbi-bdySPPE-22" value="1.a.3 il foglio per il servizio esiste già" style="edgeLabel;html=1;align=center;verticalAlign=middle;resizable=0;points=[];" parent="-L173OqNjqbi-bdySPPE-21" connectable="0" vertex="1">
          <mxGeometry x="-0.1099" relative="1" as="geometry">
            <mxPoint x="-20" as="offset" />
          </mxGeometry>
        </mxCell>
        <mxCell id="-L173OqNjqbi-bdySPPE-23" value="" style="endArrow=classic;html=1;rounded=0;" parent="1" edge="1">
          <mxGeometry width="50" height="50" relative="1" as="geometry">
            <mxPoint x="-840" y="1130" as="sourcePoint" />
            <mxPoint x="-480" y="1130" as="targetPoint" />
          </mxGeometry>
        </mxCell>
        <mxCell id="-L173OqNjqbi-bdySPPE-24" value="1.a openFoglioRiepilogativo(servizio)" style="edgeLabel;html=1;align=center;verticalAlign=middle;resizable=0;points=[];" parent="-L173OqNjqbi-bdySPPE-23" connectable="0" vertex="1">
          <mxGeometry x="0.1105" y="3" relative="1" as="geometry">
            <mxPoint x="-20" y="3" as="offset" />
          </mxGeometry>
        </mxCell>
        <mxCell id="-L173OqNjqbi-bdySPPE-25" value="" style="html=1;labelBackgroundColor=#ffffff;startArrow=none;startFill=0;startSize=6;endArrow=classic;endFill=1;endSize=6;jettySize=auto;orthogonalLoop=1;strokeWidth=1;dashed=1;fontSize=14;rounded=0;" parent="1" edge="1">
          <mxGeometry width="60" height="60" relative="1" as="geometry">
            <mxPoint x="-483" y="1170" as="sourcePoint" />
            <mxPoint x="-843" y="1170" as="targetPoint" />
          </mxGeometry>
        </mxCell>
        <mxCell id="-L173OqNjqbi-bdySPPE-26" value="ok" style="edgeLabel;html=1;align=center;verticalAlign=middle;resizable=0;points=[];" parent="-L173OqNjqbi-bdySPPE-25" connectable="0" vertex="1">
          <mxGeometry x="-0.1099" relative="1" as="geometry">
            <mxPoint x="-20" as="offset" />
          </mxGeometry>
        </mxCell>
        <mxCell id="-L173OqNjqbi-bdySPPE-27" value="" style="endArrow=none;dashed=1;html=1;dashPattern=1 3;strokeWidth=2;rounded=0;fillColor=#e51400;strokeColor=#B20000;" parent="1" edge="1">
          <mxGeometry width="50" height="50" relative="1" as="geometry">
            <mxPoint x="-847" y="1194.6399999999999" as="sourcePoint" />
            <mxPoint x="-477" y="1194.6399999999999" as="targetPoint" />
          </mxGeometry>
        </mxCell>
        <mxCell id="-L173OqNjqbi-bdySPPE-28" value="" style="html=1;labelBackgroundColor=#ffffff;startArrow=none;startFill=0;startSize=6;endArrow=classic;endFill=1;endSize=6;jettySize=auto;orthogonalLoop=1;strokeWidth=1;dashed=1;fontSize=14;rounded=0;" parent="1" edge="1">
          <mxGeometry width="60" height="60" relative="1" as="geometry">
            <mxPoint x="-480" y="1220" as="sourcePoint" />
            <mxPoint x="-840" y="1220" as="targetPoint" />
          </mxGeometry>
        </mxCell>
        <mxCell id="-L173OqNjqbi-bdySPPE-29" value="1.a.1.a lo chef non è autorizzato ad aprire il foglio" style="edgeLabel;html=1;align=center;verticalAlign=middle;resizable=0;points=[];" parent="-L173OqNjqbi-bdySPPE-28" connectable="0" vertex="1">
          <mxGeometry x="-0.1099" relative="1" as="geometry">
            <mxPoint x="-20" as="offset" />
          </mxGeometry>
        </mxCell>
        <mxCell id="-L173OqNjqbi-bdySPPE-30" value="" style="shape=image;html=1;verticalAlign=top;verticalLabelPosition=bottom;labelBackgroundColor=#ffffff;imageAspect=0;aspect=fixed;image=https://cdn0.iconfinder.com/data/icons/evericons-16px/16/x-128.png;strokeWidth=1;" parent="1" vertex="1">
          <mxGeometry x="-490" y="1085.75" width="28" height="28" as="geometry" />
        </mxCell>
        <mxCell id="-L173OqNjqbi-bdySPPE-31" value="" style="shape=image;html=1;verticalAlign=top;verticalLabelPosition=bottom;labelBackgroundColor=#ffffff;imageAspect=0;aspect=fixed;image=https://cdn0.iconfinder.com/data/icons/evericons-16px/16/x-128.png;strokeWidth=1;" parent="1" vertex="1">
          <mxGeometry x="-489" y="1016" width="29" height="32" as="geometry" />
        </mxCell>
        <mxCell id="-L173OqNjqbi-bdySPPE-32" value="" style="shape=image;html=1;verticalAlign=top;verticalLabelPosition=bottom;labelBackgroundColor=#ffffff;imageAspect=0;aspect=fixed;image=https://cdn0.iconfinder.com/data/icons/evericons-16px/16/x-128.png;strokeWidth=1;" parent="1" vertex="1">
          <mxGeometry x="-490" y="1050" width="29" height="29.31" as="geometry" />
        </mxCell>
        <mxCell id="-L173OqNjqbi-bdySPPE-33" value="" style="shape=image;html=1;verticalAlign=top;verticalLabelPosition=bottom;labelBackgroundColor=#ffffff;imageAspect=0;aspect=fixed;image=https://cdn0.iconfinder.com/data/icons/evericons-16px/16/x-128.png;strokeWidth=1;" parent="1" vertex="1">
          <mxGeometry x="-492" y="1207" width="28" height="28" as="geometry" />
        </mxCell>
        <mxCell id="-L173OqNjqbi-bdySPPE-34" value="" style="endArrow=classic;html=1;rounded=0;" parent="1" edge="1">
          <mxGeometry width="50" height="50" relative="1" as="geometry">
            <mxPoint x="-850" y="1307.02" as="sourcePoint" />
            <mxPoint x="-490" y="1307.02" as="targetPoint" />
          </mxGeometry>
        </mxCell>
        <mxCell id="-L173OqNjqbi-bdySPPE-35" value="&lt;font style=&quot;font-size: 9px;&quot;&gt;2 addCompito(procedura di cucina)&lt;br&gt;&lt;/font&gt;" style="edgeLabel;html=1;align=center;verticalAlign=middle;resizable=0;points=[];" parent="-L173OqNjqbi-bdySPPE-34" connectable="0" vertex="1">
          <mxGeometry x="0.1105" y="3" relative="1" as="geometry">
            <mxPoint x="-20" y="3" as="offset" />
          </mxGeometry>
        </mxCell>
        <mxCell id="-L173OqNjqbi-bdySPPE-36" value="" style="html=1;labelBackgroundColor=#ffffff;startArrow=none;startFill=0;startSize=6;endArrow=classic;endFill=1;endSize=6;jettySize=auto;orthogonalLoop=1;strokeWidth=1;dashed=1;fontSize=14;rounded=0;" parent="1" edge="1">
          <mxGeometry width="60" height="60" relative="1" as="geometry">
            <mxPoint x="-490.26" y="1330" as="sourcePoint" />
            <mxPoint x="-850.26" y="1330" as="targetPoint" />
          </mxGeometry>
        </mxCell>
        <mxCell id="-L173OqNjqbi-bdySPPE-37" value="&lt;font style=&quot;font-size: 9px;&quot;&gt;ok&lt;/font&gt;" style="edgeLabel;html=1;align=center;verticalAlign=middle;resizable=0;points=[];" parent="-L173OqNjqbi-bdySPPE-36" connectable="0" vertex="1">
          <mxGeometry x="-0.1099" relative="1" as="geometry">
            <mxPoint x="-20" as="offset" />
          </mxGeometry>
        </mxCell>
        <mxCell id="-L173OqNjqbi-bdySPPE-38" value="" style="endArrow=classic;html=1;rounded=0;" parent="1" edge="1">
          <mxGeometry width="50" height="50" relative="1" as="geometry">
            <mxPoint x="-849.63" y="1360" as="sourcePoint" />
            <mxPoint x="-489.63" y="1360" as="targetPoint" />
          </mxGeometry>
        </mxCell>
        <mxCell id="-L173OqNjqbi-bdySPPE-39" value="3 ordinaCompito(Compito,posizione)" style="edgeLabel;html=1;align=center;verticalAlign=middle;resizable=0;points=[];" parent="-L173OqNjqbi-bdySPPE-38" connectable="0" vertex="1">
          <mxGeometry x="0.1105" y="3" relative="1" as="geometry">
            <mxPoint x="-20" y="3" as="offset" />
          </mxGeometry>
        </mxCell>
        <mxCell id="-L173OqNjqbi-bdySPPE-40" value="" style="html=1;labelBackgroundColor=#ffffff;startArrow=none;startFill=0;startSize=6;endArrow=classic;endFill=1;endSize=6;jettySize=auto;orthogonalLoop=1;strokeWidth=1;dashed=1;fontSize=14;rounded=0;" parent="1" edge="1">
          <mxGeometry width="60" height="60" relative="1" as="geometry">
            <mxPoint x="-490.37" y="1380" as="sourcePoint" />
            <mxPoint x="-850.37" y="1380" as="targetPoint" />
          </mxGeometry>
        </mxCell>
        <mxCell id="-L173OqNjqbi-bdySPPE-41" value="ok" style="edgeLabel;html=1;align=center;verticalAlign=middle;resizable=0;points=[];" parent="-L173OqNjqbi-bdySPPE-40" connectable="0" vertex="1">
          <mxGeometry x="-0.1099" relative="1" as="geometry">
            <mxPoint x="-20" as="offset" />
          </mxGeometry>
        </mxCell>
        <mxCell id="-L173OqNjqbi-bdySPPE-42" value="" style="endArrow=classic;html=1;rounded=0;" parent="1" edge="1">
          <mxGeometry width="50" height="50" relative="1" as="geometry">
            <mxPoint x="-850" y="1450" as="sourcePoint" />
            <mxPoint x="-490" y="1450" as="targetPoint" />
          </mxGeometry>
        </mxCell>
        <mxCell id="-L173OqNjqbi-bdySPPE-43" value="&lt;font style=&quot;font-size: 9px;&quot;&gt;4 assignaCompito(Compito,Cuochi,turno?,quantità?,tempostimato?)&lt;/font&gt;" style="edgeLabel;html=1;align=center;verticalAlign=middle;resizable=0;points=[];" parent="-L173OqNjqbi-bdySPPE-42" connectable="0" vertex="1">
          <mxGeometry x="0.1105" y="3" relative="1" as="geometry">
            <mxPoint x="-20" y="3" as="offset" />
          </mxGeometry>
        </mxCell>
        <mxCell id="-L173OqNjqbi-bdySPPE-44" value="" style="html=1;labelBackgroundColor=#ffffff;startArrow=none;startFill=0;startSize=6;endArrow=classic;endFill=1;endSize=6;jettySize=auto;orthogonalLoop=1;strokeWidth=1;dashed=1;fontSize=14;rounded=0;" parent="1" edge="1">
          <mxGeometry width="60" height="60" relative="1" as="geometry">
            <mxPoint x="-493.37" y="1471" as="sourcePoint" />
            <mxPoint x="-853.37" y="1471" as="targetPoint" />
          </mxGeometry>
        </mxCell>
        <mxCell id="-L173OqNjqbi-bdySPPE-45" value="ok" style="edgeLabel;html=1;align=center;verticalAlign=middle;resizable=0;points=[];" parent="-L173OqNjqbi-bdySPPE-44" connectable="0" vertex="1">
          <mxGeometry x="-0.1099" relative="1" as="geometry">
            <mxPoint x="-20" as="offset" />
          </mxGeometry>
        </mxCell>
        <mxCell id="-L173OqNjqbi-bdySPPE-46" value="LOOP" style="shape=umlFrame;whiteSpace=wrap;html=1;pointerEvents=0;fillColor=#dae8fc;strokeColor=#6c8ebf;width=33;height=20;strokeWidth=2;" parent="1" vertex="1">
          <mxGeometry x="-863.26" y="1420" width="383.26" height="66.25" as="geometry" />
        </mxCell>
        <mxCell id="-L173OqNjqbi-bdySPPE-47" value="LOOP" style="shape=umlFrame;whiteSpace=wrap;html=1;pointerEvents=0;fillColor=#dae8fc;strokeColor=#6c8ebf;width=35;height=20;strokeWidth=2;" parent="1" vertex="1">
          <mxGeometry x="-905" y="1270" width="470" height="358.25" as="geometry" />
        </mxCell>
        <mxCell id="-L173OqNjqbi-bdySPPE-48" value="" style="endArrow=classic;html=1;rounded=0;" parent="1" edge="1">
          <mxGeometry width="50" height="50" relative="1" as="geometry">
            <mxPoint x="-851.63" y="1512.6" as="sourcePoint" />
            <mxPoint x="-491.63" y="1512.6" as="targetPoint" />
          </mxGeometry>
        </mxCell>
        <mxCell id="-L173OqNjqbi-bdySPPE-49" value="5 setTurnoSaturo(Turno, saturo)" style="edgeLabel;html=1;align=center;verticalAlign=middle;resizable=0;points=[];" parent="-L173OqNjqbi-bdySPPE-48" connectable="0" vertex="1">
          <mxGeometry x="0.1105" y="3" relative="1" as="geometry">
            <mxPoint x="-20" y="3" as="offset" />
          </mxGeometry>
        </mxCell>
        <mxCell id="-L173OqNjqbi-bdySPPE-50" value="&lt;font style=&quot;font-size: 10px;&quot;&gt;ok&lt;/font&gt;" style="html=1;labelBackgroundColor=#ffffff;startArrow=none;startFill=0;startSize=6;endArrow=classic;endFill=1;endSize=6;jettySize=auto;orthogonalLoop=1;strokeWidth=1;dashed=1;fontSize=14;rounded=0;" parent="1" edge="1">
          <mxGeometry width="60" height="60" relative="1" as="geometry">
            <mxPoint x="-483.37" y="1538" as="sourcePoint" />
            <mxPoint x="-853.37" y="1538" as="targetPoint" />
          </mxGeometry>
        </mxCell>
        <mxCell id="-L173OqNjqbi-bdySPPE-51" value="" style="endArrow=classic;html=1;rounded=0;" parent="1" edge="1">
          <mxGeometry width="50" height="50" relative="1" as="geometry">
            <mxPoint x="-851.63" y="1568" as="sourcePoint" />
            <mxPoint x="-491.63" y="1568" as="targetPoint" />
          </mxGeometry>
        </mxCell>
        <mxCell id="-L173OqNjqbi-bdySPPE-52" value="6 addNota(compito,descrizione)" style="edgeLabel;html=1;align=center;verticalAlign=middle;resizable=0;points=[];" parent="-L173OqNjqbi-bdySPPE-51" connectable="0" vertex="1">
          <mxGeometry x="0.1105" y="3" relative="1" as="geometry">
            <mxPoint x="-20" y="3" as="offset" />
          </mxGeometry>
        </mxCell>
        <mxCell id="-L173OqNjqbi-bdySPPE-53" value="" style="html=1;labelBackgroundColor=#ffffff;startArrow=none;startFill=0;startSize=6;endArrow=classic;endFill=1;endSize=6;jettySize=auto;orthogonalLoop=1;strokeWidth=1;dashed=1;fontSize=14;rounded=0;" parent="1" edge="1">
          <mxGeometry width="60" height="60" relative="1" as="geometry">
            <mxPoint x="-491.63" y="1588" as="sourcePoint" />
            <mxPoint x="-851.63" y="1588" as="targetPoint" />
          </mxGeometry>
        </mxCell>
        <mxCell id="-L173OqNjqbi-bdySPPE-54" value="ok" style="edgeLabel;html=1;align=center;verticalAlign=middle;resizable=0;points=[];" parent="-L173OqNjqbi-bdySPPE-53" connectable="0" vertex="1">
          <mxGeometry x="-0.1099" relative="1" as="geometry">
            <mxPoint x="-20" as="offset" />
          </mxGeometry>
        </mxCell>
        <mxCell id="-L173OqNjqbi-bdySPPE-55" value="OPT" style="shape=umlFrame;whiteSpace=wrap;html=1;pointerEvents=0;fillColor=#d5e8d4;strokeColor=#82b366;width=40;height=15;" parent="1" vertex="1">
          <mxGeometry x="-856.63" y="1548" width="370" height="60" as="geometry" />
        </mxCell>
        <mxCell id="-L173OqNjqbi-bdySPPE-56" value="OPT" style="shape=umlFrame;whiteSpace=wrap;html=1;pointerEvents=0;fillColor=#d5e8d4;strokeColor=#82b366;width=40;height=15;" parent="1" vertex="1">
          <mxGeometry x="-856.63" y="1488" width="370" height="60" as="geometry" />
        </mxCell>
        <mxCell id="-L173OqNjqbi-bdySPPE-57" value="LOOP" style="shape=umlFrame;whiteSpace=wrap;html=1;pointerEvents=0;fillColor=#dae8fc;strokeColor=#6c8ebf;width=35;height=17;strokeWidth=2;" parent="1" vertex="1">
          <mxGeometry x="-870" y="1296.25" width="385" height="102" as="geometry" />
        </mxCell>
        <mxCell id="-L173OqNjqbi-bdySPPE-58" value="LOOP" style="shape=umlFrame;whiteSpace=wrap;html=1;pointerEvents=0;fillColor=#dae8fc;strokeColor=#6c8ebf;width=33;height=20;strokeWidth=2;" parent="1" vertex="1">
          <mxGeometry x="-875" y="1406.25" width="395" height="210" as="geometry" />
        </mxCell>
        <mxCell id="-L173OqNjqbi-bdySPPE-59" value="OPT" style="shape=umlFrame;whiteSpace=wrap;html=1;pointerEvents=0;fillColor=#d5e8d4;strokeColor=#82b366;width=40;height=15;" parent="1" vertex="1">
          <mxGeometry x="-870" y="1346.25" width="385" height="60" as="geometry" />
        </mxCell>
      </root>
    </mxGraphModel>
  </diagram>
</mxfile>
